<?xml version="1.0" encoding="UTF-8" standalone="no"?>
<!-- Created with Inkscape (http://www.inkscape.org/) -->

<svg
   xmlns:dc="http://purl.org/dc/elements/1.1/"
   xmlns:cc="http://creativecommons.org/ns#"
   xmlns:rdf="http://www.w3.org/1999/02/22-rdf-syntax-ns#"
   xmlns:svg="http://www.w3.org/2000/svg"
   xmlns="http://www.w3.org/2000/svg"
   xmlns:xlink="http://www.w3.org/1999/xlink"
   xmlns:sodipodi="http://sodipodi.sourceforge.net/DTD/sodipodi-0.dtd"
   xmlns:inkscape="http://www.inkscape.org/namespaces/inkscape"
   width="1024"
   height="1024"
   id="svg2"
   version="1.1"
   inkscape:version="0.48.4 r9939"
   sodipodi:docname="chestButton.svg"
   inkscape:export-filename="/home/jan-bart/b-human/B-Human/Src/Controller/Icons/chestButton.png"
   inkscape:export-xdpi="5.625"
   inkscape:export-ydpi="5.625">
  <defs
     id="defs4">
    <linearGradient
       id="linearGradient3902">
      <stop
         style="stop-color:#ffffff;stop-opacity:1;"
         offset="0"
         id="stop3904" />
      <stop
         style="stop-color:#fff9f9;stop-opacity:0.72868216;"
         offset="1"
         id="stop3906" />
    </linearGradient>
    <linearGradient
       id="linearGradient4110">
      <stop
         style="stop-color:#0eb0fb;stop-opacity:1;"
         offset="0"
         id="stop4112" />
      <stop
         style="stop-color:#ff00f3;stop-opacity:1;"
         offset="1"
         id="stop4114" />
    </linearGradient>
    <inkscape:perspective
       sodipodi:type="inkscape:persp3d"
       inkscape:vp_x="0 : 512 : 1"
       inkscape:vp_y="0 : 1000 : 0"
       inkscape:vp_z="1024 : 512 : 1"
       inkscape:persp3d-origin="512 : 341.33333 : 1"
       id="perspective4094" />
    <linearGradient
       id="linearGradient4483">
      <stop
         style="stop-color:#056aff;stop-opacity:1;"
         offset="0"
         id="stop4485" />
      <stop
         style="stop-color:#ffffff;stop-opacity:0;"
         offset="1"
         id="stop4487" />
    </linearGradient>
    <linearGradient
       inkscape:collect="always"
       xlink:href="#linearGradient3902"
       id="linearGradient3908"
       x1="509.1376"
       y1="513.90118"
       x2="467.15973"
       y2="1029.1136"
       gradientUnits="userSpaceOnUse"
       gradientTransform="matrix(1.2524295,0,0,1.2524296,-146.91309,-129.30104)" />
    <linearGradient
       gradientTransform="matrix(1.2524295,0,0,1.2524296,-146.91309,-129.30104)"
       gradientUnits="userSpaceOnUse"
       y2="1029.1136"
       x2="467.15973"
       y1="513.90118"
       x1="509.1376"
       id="linearGradient3908-9"
       xlink:href="#linearGradient3902-9"
       inkscape:collect="always" />
    <linearGradient
       id="linearGradient4483-6">
      <stop
         id="stop4485-0"
         offset="0"
         style="stop-color:#056aff;stop-opacity:1;" />
      <stop
         id="stop4487-9"
         offset="1"
         style="stop-color:#ffffff;stop-opacity:0;" />
    </linearGradient>
    <inkscape:perspective
       id="perspective4094-6"
       inkscape:persp3d-origin="512 : 341.33333 : 1"
       inkscape:vp_z="1024 : 512 : 1"
       inkscape:vp_y="0 : 1000 : 0"
       inkscape:vp_x="0 : 512 : 1"
       sodipodi:type="inkscape:persp3d" />
    <linearGradient
       id="linearGradient4110-6">
      <stop
         id="stop4112-5"
         offset="0"
         style="stop-color:#0eb0fb;stop-opacity:1;" />
      <stop
         id="stop4114-7"
         offset="1"
         style="stop-color:#ff00f3;stop-opacity:1;" />
    </linearGradient>
    <linearGradient
       id="linearGradient3902-9">
      <stop
         id="stop3904-8"
         offset="0"
         style="stop-color:#ffffff;stop-opacity:1;" />
      <stop
         id="stop3906-2"
         offset="1"
         style="stop-color:#fff9f9;stop-opacity:0.72868216;" />
    </linearGradient>
  </defs>
  <sodipodi:namedview
     id="base"
     pagecolor="#ffffff"
     bordercolor="#666666"
     borderopacity="1.0"
     inkscape:pageopacity="0.0"
     inkscape:pageshadow="2"
     inkscape:zoom="0.53515625"
     inkscape:cx="512"
     inkscape:cy="512"
     inkscape:document-units="px"
     inkscape:current-layer="layer3"
     showgrid="false"
     showguides="true"
     inkscape:guide-bbox="true"
     fit-margin-top="0"
     fit-margin-left="0"
     fit-margin-right="0"
     fit-margin-bottom="0"
     inkscape:window-width="1366"
     inkscape:window-height="725"
     inkscape:window-x="0"
     inkscape:window-y="25"
     inkscape:window-maximized="1"
     inkscape:showpageshadow="false"
     borderlayer="true"
     showborder="false">
    <sodipodi:guide
       orientation="0,1"
       position="-10.429825,956.71547"
       id="guide3101" />
    <sodipodi:guide
       orientation="1,0"
       position="956.5625,59.8125"
       id="guide3103" />
    <sodipodi:guide
       orientation="0,1"
       position="1246.875,315.625"
       id="guide3105" />
    <sodipodi:guide
       orientation="1,0"
       position="67.351921,64.523494"
       id="guide3107" />
    <sodipodi:guide
       orientation="0,1"
       position="961.5,67.5"
       id="guide3109" />
    <sodipodi:guide
       orientation="1,0"
       position="319.08193,67.707547"
       id="guide3111" />
    <sodipodi:guide
       orientation="1,0"
       position="511.68014,67.707547"
       id="guide3113" />
    <sodipodi:guide
       orientation="1,0"
       position="706.1875,64.734375"
       id="guide3115" />
    <sodipodi:guide
       orientation="0,1"
       position="-21.213203,1024"
       id="guide3117" />
    <sodipodi:guide
       orientation="0,1"
       position="0,0"
       id="guide3119" />
    <sodipodi:guide
       orientation="1,0"
       position="0,1042.6289"
       id="guide3121" />
    <sodipodi:guide
       orientation="0,1"
       position="-6.8942911,705"
       id="guide3123" />
    <sodipodi:guide
       orientation="1,0"
       position="1024,1037.75"
       id="guide3125" />
    <sodipodi:guide
       orientation="0,1"
       position="-27.223611,512.65241"
       id="guide3127" />
    <inkscape:grid
       type="xygrid"
       id="grid4235"
       empspacing="5"
       visible="true"
       enabled="true"
       snapvisiblegridlinesonly="true" />
    <sodipodi:guide
       orientation="1,0"
       position="511.68014,430.8932"
       id="guide4003" />
  </sodipodi:namedview>
  <metadata
     id="metadata7">
    <rdf:RDF>
      <cc:Work
         rdf:about="">
        <dc:format>image/svg+xml</dc:format>
        <dc:type
           rdf:resource="http://purl.org/dc/dcmitype/StillImage" />
        <dc:title></dc:title>
      </cc:Work>
    </rdf:RDF>
  </metadata>
  <g
     inkscape:groupmode="layer"
     id="layer5"
     inkscape:label="Background"
     style="display:inline"
     sodipodi:insensitive="true" />
  <g
     inkscape:groupmode="layer"
     id="layer3"
     inkscape:label="Layer"
     style="display:inline">
    <g
       id="layer5-4"
       inkscape:label="Background"
       style="display:inline"
       transform="translate(-1209.4044,954.67744)" />
    <g
       id="layer6-1"
       inkscape:label="MASK"
       style="display:none"
       transform="translate(-1209.4044,954.67744)">
      <path
         style="color:#000000;fill:#ffffff;fill-opacity:1;fill-rule:nonzero;stroke:none;stroke-width:2;marker:none;visibility:visible;display:inline;overflow:visible;enable-background:accumulate"
         d="m -0.03515625,708.40625 c 0.05564213,38.75762 0.61632351,71.02215 3.48917125,100.18549 0.8757813,8.89038 2.0231286,17.50673 3.364698,25.91301 2.7291509,17.10087 6.251639,30.63186 10.624705,44.6288 0.983104,3.14664 2.343873,6.00913 3.546782,8.89844 4.954414,11.90016 10.441772,22.62502 16.75229,32.23106 7.482354,11.38984 16.590926,23.44234 26.690428,33.79613 11.282296,11.56636 22.163363,20.60638 34.238258,28.7856 7.753914,5.2523 15.167714,9.80978 23.655414,13.91931 3.34329,1.61873 6.78353,3.25751 10.45545,4.87471 6.01057,2.6472 12.64725,5.2405 20.38236,7.4312 16.33865,4.6274 37.83594,9.5058 66.67436,11.7859 26.04947,2.0596 58.07248,3.2184 99.20801,3.1754 l -319.08192625,0 z"
         id="path4146-3"
         inkscape:connector-curvature="0"
         sodipodi:nodetypes="csssssssssssccc" />
      <path
         style="color:#000000;fill:#ffffff;fill-opacity:1;fill-rule:nonzero;stroke:none;stroke-width:2;marker:none;visibility:visible;display:inline;overflow:visible;enable-background:accumulate"
         d="m 1024,708.375 c -0.028,33.52476 -0.3641,57.51886 -2.1872,86.13032 -2.1429,33.63123 -7.6767,62.03085 -16.1313,85.82727 -5.1582,14.5187 -11.40374,27.32387 -18.62968,38.55822 -10.39312,16.15845 -22.65083,31.16786 -36.89519,44.46448 -6.86448,6.40775 -13.96935,11.81612 -21.91877,17.50161 -10.37402,7.41958 -20.2254,13.06198 -32.1818,18.6383 -10.69022,4.9858 -23.165,9.4996 -39.90567,13.451 -11.58454,2.7344 -25.21186,5.3376 -41.70422,7.0737 -27.23282,2.8667 -62.17789,3.4121 -108.25867,3.9801 L 1024,1024 z"
         id="path4146-5-0"
         inkscape:connector-curvature="0"
         sodipodi:nodetypes="cssssssssccc" />
      <path
         style="color:#000000;fill:#ffffff;fill-opacity:1;fill-rule:nonzero;stroke:none;stroke-width:2;marker:none;visibility:visible;display:inline;overflow:visible;enable-background:accumulate"
         d="m 1023.9571,318.26274 c 0.1837,-39.14081 -0.2997,-73.55855 -3.476,-103.94061 -1.4113,-13.49969 -3.8539,-26.31006 -5.9548,-38.18792 -3.6187,-20.45841 -10.1174,-38.44655 -17.2973,-52.70888 -2.12747,-4.22606 -3.90726,-7.55456 -5.77779,-10.81658 -1.49793,-2.61224 -3.05404,-5.18185 -4.89348,-8.13563 -1.96035,-3.14791 -3.87346,-6.195884 -5.993,-9.197124 C 974.88453,87.232938 968.40279,79.35023 961.65509,72.082687 951.58996,61.242143 940.4011,51.100793 927.77306,42.698049 909.73264,30.693887 894.47219,21.390417 866.08729,13.614807 853.18652,10.080839 837.40303,6.7460486 817.42751,4.3881848 790.09127,1.1614792 754.65731,0.08073128 706.1875,0 L 1024,0 z"
         id="path4146-5-3-8"
         inkscape:connector-curvature="0"
         sodipodi:nodetypes="cssssssssssccc" />
      <path
         style="color:#000000;fill:#ffffff;fill-opacity:1;fill-rule:nonzero;stroke:none;stroke-width:2;marker:none;visibility:visible;display:inline;overflow:visible;enable-background:accumulate"
         d="M 0,318.48 C 0.04438432,264.21497 1.9515494,215.42652 8.7981727,178.4577 14.754939,146.29372 24.640519,123.97857 37.889606,103.37989 53.29125,79.434582 73.01483,58.195063 97.250401,42.030991 111.80438,32.324119 124.48551,25.310001 143.39137,18.055461 153.25339,14.271217 164.74156,11.469151 178.08885,8.8727346 208.3231,2.9913388 250.69975,-0.29260813 319.08193,0 L 0,0 z"
         id="path4146-5-3-7-1"
         inkscape:connector-curvature="0"
         sodipodi:nodetypes="csssssccc" />
    </g>
    <path
       style="fill:#000000"
       d="m 355.31902,874.61552 c -30.03774,-1.83298 -70.94211,-7.19901 -98.55313,-12.92862 -22.22702,-4.6124 -22.68912,-6.32746 -6.52494,-24.21717 25.34695,-28.05261 47.52658,-56.69591 68.517,-88.48418 24.10126,-36.4995 39.48133,-63.36896 64.23292,-112.21717 10.77235,-21.25971 17.14287,-32.7372 18.90789,-34.06592 2.5854,-1.94625 4.30945,-2.00714 59.94962,-2.11714 31.50829,-0.0622 60.93463,-0.44094 65.39215,-0.84142 6.86399,-0.61675 8.35918,-0.47344 9.7689,0.93627 3.45851,3.45853 2.68541,6.22008 -12.34679,44.10373 -15.08238,38.00977 -41.2875,99.27083 -56.14556,131.25402 -15.95016,34.33417 -42.80995,86.81844 -47.76864,93.34032 -4.49099,5.90666 -6.76159,6.36861 -30.51296,6.20764 -11.76466,-0.0798 -27.47707,-0.5164 -34.91646,-0.97036 z m 320.73863,-54.74277 c -4.81272,-4.85116 -28.65256,-50.75748 -46.43859,-89.42307 -22.57919,-49.08543 -51.86959,-120.74332 -51.86959,-126.89704 0,-4.21727 2.29424,-6.35745 6.83464,-6.37552 9.18789,-0.0366 90.90083,-6.31172 98.09054,-7.53284 1.93044,-0.32788 4.3939,0.0544 6.12704,0.95059 3.09119,1.59852 3.90627,3.04251 9.66202,17.11728 21.3405,52.18439 52.43536,112.78257 78.22257,152.44121 7.93666,12.206 8.92969,14.39605 8.07374,17.80628 -0.5674,2.26083 -2.03324,3.05876 -24.65763,13.42241 -25.1136,11.50392 -75.29462,31.24604 -79.422,31.24604 -1.03913,0 -3.11934,-1.23992 -4.62274,-2.75534 z M 473.54783,533.39234 c -44.88037,-0.40998 -122.58344,-2.51002 -124.85704,-3.37442 -5.80042,-2.20531 -5.42891,4.97697 -6.82411,-131.94038 -0.0681,-6.63786 0.1591,-7.47488 2.71505,-10.01939 l 2.7888,-2.77646 30.77616,0.27226 c 77.16826,0.68273 153.5671,6.30824 248.45624,18.29473 45.26401,5.71777 98.68459,13.38857 104.62219,15.02293 5.40865,1.48878 6.11292,4.52579 4.89426,21.10529 -0.87098,11.84906 -2.44563,47.68287 -3.35419,76.32764 -0.4598,14.4978 2.0181,13.43394 -34.28206,14.71868 -39.23441,1.38857 -145.5612,3.07105 -176.84222,2.79827 -13.50114,-0.11772 -35.14302,-0.31084 -48.09308,-0.42915 z M 604.80184,338.07033 c -21.26275,-4.0644 -99.2651,-15.40985 -105.94574,-15.40985 -0.19908,0 -1.01536,-1.56357 -1.81381,-3.47458 -2.24774,-5.3796 -2.174,-234.69173 0.0772,-239.04442 2.03603,-3.93734 3.12804,-3.87171 26.02465,1.56432 34.0989,8.09561 70.84671,19.38121 103.1803,31.68763 17.29896,6.58414 17.3633,6.68008 15.68606,23.40736 -5.96887,59.53056 -11.102,124.39038 -14.70929,185.85969 -0.37191,6.33727 -1.28007,12.98764 -2.01809,14.7786 -1.64429,3.9902 -2.733,4.02375 -20.48093,0.63125 z"
       id="path4384"
       inkscape:connector-curvature="0" />
    <path
       sodipodi:type="arc"
       style="fill:none;stroke:#000000;stroke-width:43.50227356;stroke-miterlimit:4;stroke-opacity:1;stroke-dasharray:none"
       id="path4388"
       sodipodi:cx="511.95721"
       sodipodi:cy="515.73602"
       sodipodi:rx="444.60529"
       sodipodi:ry="448.45148"
       d="m 956.5625,515.73602 a 444.60529,448.45148 0 1 1 -889.210571,0 444.60529,448.45148 0 1 1 889.210571,0 z"
       transform="matrix(1.0980928,0,0,1.0886749,-50.176549,-49.468879)" />
  </g>
  <g
     inkscape:label="BORDER"
     inkscape:groupmode="layer"
     id="layer1"
     transform="translate(50.25,211.52169)"
     style="display:inline"
     sodipodi:insensitive="true">
    <path
       inkscape:connector-curvature="0"
       d="m 301.95446,-211.52169 319.59108,0 c 101.4156,0 152.12339,0 206.7084,17.25959 59.59748,21.69173 106.54481,68.63899 128.23654,128.236542 C 973.75,-11.44076 973.75,39.267072 973.75,140.68273 l 0,319.59116 c 0,101.41566 0,152.12349 -17.25952,206.70829 -21.69173,59.59758 -68.63906,106.54477 -128.23654,128.23654 -54.58501,17.25959 -105.2928,17.25959 -206.7084,17.25959 l -319.59108,0 c -101.4156,0 -152.12339,0 -206.708396,-17.25959 C 35.648581,773.52695 -11.298747,726.57976 -32.99048,666.98218 -50.25,612.39738 -50.25,561.68955 -50.25,460.27389 l 0,-319.59116 c 0,-101.415658 0,-152.12349 17.25952,-206.708254 21.691733,-59.597546 68.639061,-106.544846 128.236544,-128.236576 54.585006,-17.25959 105.292796,-17.25959 206.708396,-17.25959 l 0,0"
       id="path5"
       style="fill:none;stroke:#000000;stroke-opacity:1" />
  </g>
  <g
     inkscape:groupmode="layer"
     id="layer6"
     inkscape:label="MASK"
     style="display:inline" />
  <g
     inkscape:groupmode="layer"
     id="layer2"
     inkscape:label="GUIDES"
     style="display:none"
     transform="translate(0,-2.2054443)"
     sodipodi:insensitive="true">
    <path
       style="color:#000000;fill:none;stroke:#000000;stroke-width:2;stroke-linecap:butt;stroke-linejoin:miter;stroke-miterlimit:4;stroke-opacity:1;stroke-dasharray:none;stroke-dashoffset:0;marker:none;visibility:visible;display:inline;overflow:visible;enable-background:accumulate"
       d="m 0.99801512,321.03518 0,386.27669"
       id="path4024"
       inkscape:connector-curvature="0" />
    <path
       sodipodi:type="arc"
       style="color:#000000;fill:none;stroke:#000000;stroke-width:1.00571477;stroke-linecap:butt;stroke-linejoin:miter;stroke-miterlimit:4;stroke-opacity:1;stroke-dasharray:none;stroke-dashoffset:0;marker:none;visibility:visible;display:inline;overflow:visible;enable-background:accumulate"
       id="path3129"
       sodipodi:cx="462.32144"
       sodipodi:cy="298.86218"
       sodipodi:rx="138"
       sodipodi:ry="138"
       d="m 600.32144,298.86218 a 138,138 0 1 1 -276,0 138,138 0 1 1 276,0 z"
       transform="matrix(1.988799,0,0,1.988471,-407.91018,-80.585593)" />
    <path
       sodipodi:type="arc"
       style="color:#000000;fill:none;stroke:#000000;stroke-width:0.62086099;stroke-linecap:butt;stroke-linejoin:miter;stroke-miterlimit:4;stroke-opacity:1;stroke-dasharray:none;stroke-dashoffset:0;marker:none;visibility:visible;display:inline;overflow:visible;enable-background:accumulate"
       id="path3129-9"
       sodipodi:cx="462.32144"
       sodipodi:cy="298.86218"
       sodipodi:rx="138"
       sodipodi:ry="138"
       d="m 600.32144,298.86218 a 138,138 0 1 1 -276,0 138,138 0 1 1 276,0 z"
       transform="matrix(3.2215081,0,0,3.2211587,-977.38931,-448.55899)" />
    <path
       style="color:#000000;fill:none;stroke:#000000;stroke-width:2;stroke-linecap:butt;stroke-linejoin:miter;stroke-miterlimit:4;stroke-opacity:1;stroke-dasharray:none;stroke-dashoffset:0;marker:none;visibility:visible;display:inline;overflow:visible;enable-background:accumulate"
       d="M 67.351921,69.489974 956.5625,958.70544"
       id="path4011"
       inkscape:connector-curvature="0"
       sodipodi:nodetypes="cc" />
    <path
       style="color:#000000;fill:none;stroke:#000000;stroke-width:2;stroke-linecap:butt;stroke-linejoin:miter;stroke-miterlimit:4;stroke-opacity:1;stroke-dasharray:none;stroke-dashoffset:0;marker:none;visibility:visible;display:inline;overflow:visible;enable-background:accumulate"
       d="m 0.99801467,707.31189 1022.00298533,0"
       id="path4028"
       inkscape:connector-curvature="0" />
    <path
       style="color:#000000;fill:none;stroke:#000000;stroke-width:2;stroke-linecap:butt;stroke-linejoin:miter;stroke-miterlimit:4;stroke-opacity:1;stroke-dasharray:none;stroke-dashoffset:0;marker:none;visibility:visible;display:inline;overflow:visible;enable-background:accumulate"
       d="m 0.99801467,513.69318 1022.00298533,0"
       id="path4030"
       inkscape:connector-curvature="0" />
    <path
       style="color:#000000;fill:none;stroke:#000000;stroke-width:2;stroke-linecap:butt;stroke-linejoin:miter;stroke-miterlimit:4;stroke-opacity:1;stroke-dasharray:none;stroke-dashoffset:0;marker:none;visibility:visible;display:inline;overflow:visible;enable-background:accumulate"
       d="m 0.99801467,321.0352 1022.00298533,0"
       id="path4032"
       inkscape:connector-curvature="0" />
    <path
       style="color:#000000;fill:none;stroke:#000000;stroke-width:2;stroke-linecap:butt;stroke-linejoin:miter;stroke-miterlimit:4;stroke-opacity:1;stroke-dasharray:none;stroke-dashoffset:0;marker:none;visibility:visible;display:inline;overflow:visible;enable-background:accumulate"
       d="m 319.08193,1026.2054 0,-1023.9999557"
       id="path4034"
       inkscape:connector-curvature="0"
       sodipodi:nodetypes="cc" />
    <path
       style="color:#000000;fill:none;stroke:#000000;stroke-width:2;stroke-linecap:butt;stroke-linejoin:miter;stroke-miterlimit:4;stroke-opacity:1;stroke-dasharray:none;stroke-dashoffset:0;marker:none;visibility:visible;display:inline;overflow:visible;enable-background:accumulate"
       d="m 511.68014,2.2054443 0,1023.9999557"
       id="path4036"
       inkscape:connector-curvature="0"
       sodipodi:nodetypes="cc" />
    <path
       style="color:#000000;fill:none;stroke:#000000;stroke-width:2;stroke-linecap:butt;stroke-linejoin:miter;stroke-miterlimit:4;stroke-opacity:1;stroke-dasharray:none;stroke-dashoffset:0;marker:none;visibility:visible;display:inline;overflow:visible;enable-background:accumulate"
       d="m 706.1875,1026.2054 0,-1023.9999557"
       id="path4038"
       inkscape:connector-curvature="0"
       sodipodi:nodetypes="cc" />
    <path
       style="color:#000000;fill:none;stroke:#000000;stroke-width:2;stroke-linecap:butt;stroke-linejoin:miter;stroke-miterlimit:4;stroke-opacity:1;stroke-dasharray:none;stroke-dashoffset:0;marker:none;visibility:visible;display:inline;overflow:visible;enable-background:accumulate"
       d="M 67.351921,958.70544 956.5625,69.489974"
       id="path4001"
       inkscape:connector-curvature="0"
       sodipodi:nodetypes="cc" />
    <path
       style="color:#000000;fill:none;stroke:#000000;stroke-width:2;stroke-linecap:butt;stroke-linejoin:miter;stroke-miterlimit:4;stroke-opacity:1;stroke-dasharray:none;stroke-dashoffset:0;marker:none;visibility:visible;display:inline;overflow:visible;enable-background:accumulate"
       d="m 956.5625,69.489974 0,889.215466"
       id="path4003"
       inkscape:connector-curvature="0"
       sodipodi:nodetypes="cc" />
    <path
       style="color:#000000;fill:none;stroke:#000000;stroke-width:2;stroke-linecap:butt;stroke-linejoin:miter;stroke-miterlimit:4;stroke-opacity:1;stroke-dasharray:none;stroke-dashoffset:0;marker:none;visibility:visible;display:inline;overflow:visible;enable-background:accumulate"
       d="m 67.351921,69.489974 889.210579,0"
       id="path4009"
       inkscape:connector-curvature="0"
       sodipodi:nodetypes="cc" />
    <path
       style="color:#000000;fill:none;stroke:#000000;stroke-width:2;stroke-linecap:butt;stroke-linejoin:miter;stroke-miterlimit:4;stroke-opacity:1;stroke-dasharray:none;stroke-dashoffset:0;marker:none;visibility:visible;display:inline;overflow:visible;enable-background:accumulate"
       d="m 67.351921,958.70544 0,-889.215466"
       id="path4007"
       inkscape:connector-curvature="0"
       sodipodi:nodetypes="cc" />
    <path
       style="color:#000000;fill:none;stroke:#000000;stroke-width:2;stroke-linecap:butt;stroke-linejoin:miter;stroke-miterlimit:4;stroke-opacity:1;stroke-dasharray:none;stroke-dashoffset:0;marker:none;visibility:visible;display:inline;overflow:visible;enable-background:accumulate"
       d="m 956.5625,958.70544 -889.210579,-3e-5"
       id="path4005"
       inkscape:connector-curvature="0"
       sodipodi:nodetypes="cc" />
    <path
       sodipodi:type="arc"
       style="color:#000000;fill:none;stroke:#000000;stroke-width:1.42908275;stroke-linecap:butt;stroke-linejoin:miter;stroke-miterlimit:4;stroke-opacity:1;stroke-dasharray:none;stroke-dashoffset:0;marker:none;visibility:visible;display:inline;overflow:visible;enable-background:accumulate"
       id="path3129-7"
       sodipodi:cx="462.32144"
       sodipodi:cy="298.86218"
       sodipodi:rx="138"
       sodipodi:ry="138"
       d="m 600.32144,298.86218 a 138,138 0 1 1 -276,0 138,138 0 1 1 276,0 z"
       transform="matrix(1.4025564,0,0,1.3964479,-135.79717,96.569794)" />
  </g>
</svg>
