<?xml version="1.0" encoding="UTF-8"?>
<svg xmlns="http://www.w3.org/2000/svg" xmlns:xlink="http://www.w3.org/1999/xlink" width="10.4pt" height="7.4pt" viewBox="0 0 10.4 7.4" version="1.1">
<g id="surface1">
<rect x="0" y="0" width="10.4" height="7.4" style="fill:rgb(0%,90%,0%);fill-opacity:1;stroke:none;"/>
<path style="fill:none;stroke-width:0.05;stroke-linecap:butt;stroke-linejoin:miter;stroke:rgb(100%,100%,100%);stroke-opacity:1;stroke-miterlimit:10;" d="M -4.500781 -3.000781 L -4.500781 2.999219 L 4.499219 2.999219 L 4.499219 -3.000781 Z M -0.00078125 -3.000781 L -0.00078125 2.999219 M -4.500781 -2.000781 L -2.848438 -2.000781 L -2.848438 1.999219 L -4.500781 1.999219 M 4.499219 -2.000781 L 2.850781 -2.000781 L 2.850781 1.999219 L 4.499219 1.999219 M -4.500781 -1.098438 L -3.899219 -1.098438 L -3.899219 1.100781 L -4.500781 1.100781 M 4.499219 -1.098438 L 3.901562 -1.098438 L 3.901562 1.100781 L 4.499219 1.100781 M 0.749219 -0.00078125 C 0.749219 0.999219 -0.750781 0.999219 -0.750781 -0.00078125 C -0.750781 -1.000781 0.749219 -1.000781 0.749219 -0.00078125 M -0.0515625 -0.00078125 L 0.05 -0.00078125 M 3.151562 -0.00078125 L 3.249219 -0.00078125 M 3.198437 -0.0515625 L 3.198437 0.05 M -3.250781 -0.00078125 L -3.149219 -0.00078125 M -3.2 -0.0515625 L -3.2 0.05 " transform="matrix(1,0,0,1,5.2,3.7)"/>
</g>
</svg>
